<?xml version="1.0" encoding="UTF-8"?><svg id="Layer_1" xmlns="http://www.w3.org/2000/svg" xmlns:xlink="http://www.w3.org/1999/xlink" viewBox="0 0 205.32 182.99"><defs><style>.cls-1{fill:url(#linear-gradient);}.cls-2{fill:#fff;}.cls-3{fill:#dbd5d5;}</style><linearGradient id="linear-gradient" x1="-200.46" y1="615.23" x2="-200.92" y2="614.59" gradientTransform="translate(40083.32 112612.48) scale(199.29 -182.99)" gradientUnits="userSpaceOnUse"><stop offset="0" stop-color="#f04d50"/><stop offset="1" stop-color="#76cedb"/></linearGradient></defs><path id="Path_4-2" class="cls-3" d="M44.23,182.92c-2.14-.05-4.22-.77-5.94-2.04C-5.2,145.01-11.37,80.67,24.51,37.18,60.38-6.3,124.72-12.47,168.2,23.4c43.49,35.87,49.66,100.21,13.78,143.7-4.14,5.02-8.76,9.64-13.78,13.78-3.97,3.2-9.78,2.59-12.98-1.38-3.18-3.93-2.6-9.69,1.29-12.91,35.61-29.31,40.72-81.95,11.4-117.56C138.6,13.42,85.97,8.32,50.35,37.63c-35.61,29.31-40.72,81.95-11.4,117.56,3.42,4.16,7.24,7.98,11.4,11.4,3.88,3.26,4.46,9.02,1.3,12.99-1.93,2.07-4.6,3.27-7.42,3.34Z"/><g id="Group_5"><g id="Group_2"><path id="Path_5-2" class="cls-1" d="M43.08,182.99c-2.14-.05-4.22-.77-5.94-2.04C-6.37,145.05-12.54,80.66,23.36,37.15,59.26-6.37,123.65-12.54,167.17,23.36c14.56,12.01,25.51,27.83,31.63,45.68,1.64,4.82-.94,10.05-5.75,11.69-4.82,1.64-10.05-.94-11.69-5.75h0C166.52,31.31,119.1,7.93,75.44,22.76,31.77,37.59,8.39,85.01,23.22,128.68c5,14.71,14,27.74,25.99,37.62,3.88,3.26,4.46,9.02,1.3,12.99-1.79,2.29-4.52,3.66-7.43,3.71Z"/></g><ellipse id="Ellipse_3-2" class="cls-2" cx="190.23" cy="72.54" rx="9.49" ry="8.81"/></g></svg>