<?xml version="1.0" encoding="UTF-8"?><svg id="Layer_1" xmlns="http://www.w3.org/2000/svg" viewBox="0 0 30.24 28.02"><defs><style>.cls-1{fill:#fff;stroke:#2b2929;}</style></defs><g id="Icon_ionic-ios-cart"><path id="Path_1-2" class="cls-1" d="M10.06,25.83c0,.93-.76,1.69-1.69,1.69s-1.69-.76-1.69-1.69c0-.93,.76-1.69,1.69-1.69h0c.93,0,1.69,.76,1.69,1.69h0Z"/><path id="Path_2-2" class="cls-1" d="M25.84,25.83c0,.93-.76,1.69-1.69,1.69-.93,0-1.69-.76-1.69-1.69,0-.93,.76-1.69,1.69-1.69s1.69,.76,1.69,1.69h0Z"/><path id="Path_3-2" class="cls-1" d="M29.73,5.31c-.05-.17-.19-.29-.37-.3L6.46,2.8c-.22-.02-.41-.14-.53-.33-.24-.47-.53-.9-.86-1.31-.54-.66-1.56-.64-3.43-.65-.56-.07-1.07,.33-1.14,.89,0,.03,0,.06,0,.1,0,.55,.45,1,1,1,.03,0,.06,0,.1,0,.61-.02,1.22,.03,1.83,.13,.33,.1,.6,.64,.7,1.11,0,0,0,.02,0,.02,.01,.08,.14,.72,.14,.72l2.8,14.88c.12,.91,.47,1.77,1.02,2.51,.54,.73,1.41,1.16,2.32,1.14H27.05c.54,0,.98-.41,1.01-.94,.03-.54-.39-1-.93-1.03-.02,0-.03,0-.05,0H10.4c-.21,.01-.42-.06-.58-.2-.46-.5-.74-1.14-.81-1.82l-.3-1.67s0-.04,.03-.04l19.53-3.3c.18-.03,.33-.18,.34-.37l1.12-8.14c.01-.06,.01-.12,0-.18Z"/></g></svg>