<?xml version="1.0" encoding="UTF-8"?><svg id="Layer_1" xmlns="http://www.w3.org/2000/svg" viewBox="0 0 29.27 29.27"><defs><style>.cls-1{fill:#fff;}</style></defs><path id="face" class="cls-1" d="M26.13,0H3.14C1.4,0,0,1.4,0,3.14h0V26.13c0,1.73,1.4,3.14,3.14,3.14H12.1v-9.95H7.99v-4.68h4.11v-3.57c0-4.06,2.42-6.3,6.12-6.3,1.22,.02,2.43,.12,3.63,.32v3.98h-2.05c-1.28-.17-2.46,.73-2.63,2.01-.02,.17-.03,.34-.01,.52v3.04h4.49l-.72,4.68h-3.77v9.95h8.97c1.73,0,3.14-1.4,3.14-3.14V3.14C29.27,1.4,27.86,0,26.13,0Z"/></svg>