<?xml version="1.0" encoding="UTF-8"?><svg id="Layer_1" xmlns="http://www.w3.org/2000/svg" viewBox="0 0 27.44 26.55"><defs><style>.cls-1{fill:#e5e5e5;}</style></defs><path id="Icon_awesome-feather-alt-2" class="cls-1" d="M0,0C2.73,.14,21.95,1.63,23.52,14.76c.19,1.4,.3,2.81,.39,4.22L14.31,9.73c-.33-.33-.87-.33-1.19,0-.33,.33-.33,.87,0,1.19,0,0,.01,0,.02,.01l13.92,13.43c.5,.49,.52,1.29,.03,1.79s-1.29,.52-1.79,.03h0l-3.07-2.96c-2.22,.03-4.44-.06-6.65-.27-2.59-.2-5.05-1.2-7.04-2.86l5.32-.09-7.78-2.44c-.61-.78-1.16-1.6-1.65-2.46l4.28-.07-5.67-2.71C1.42,8.39,.4,4.24,0,0Z"/></svg>