<?xml version="1.0" encoding="UTF-8"?><svg id="Layer_1" xmlns="http://www.w3.org/2000/svg" viewBox="0 0 29.26 29.27"><defs><style>.cls-1{fill:#fff;}</style></defs><path id="Icon_awesome-instagram" class="cls-1" d="M14.64,7.13c-4.14,0-7.5,3.36-7.5,7.5s3.36,7.5,7.5,7.5,7.5-3.36,7.5-7.5c0-4.14-3.34-7.49-7.48-7.5,0,0-.01,0-.02,0Zm0,12.38c-2.69,0-4.88-2.18-4.88-4.88,0-2.69,2.18-4.88,4.88-4.88,2.69,0,4.88,2.18,4.88,4.88h0c0,2.69-2.19,4.87-4.88,4.88ZM24.19,6.83c0,.97-.78,1.75-1.75,1.75s-1.75-.78-1.75-1.75,.78-1.75,1.75-1.75c.96,0,1.75,.78,1.75,1.74,0,0,0,0,0,0Zm4.97,1.78c.05-2.28-.8-4.48-2.36-6.14C25.14,.91,22.94,.06,20.67,.1,18.25-.03,11.01-.03,8.6,.1,6.32,.06,4.12,.91,2.47,2.47,.91,4.12,.06,6.32,.11,8.6-.04,11.01-.04,18.25,.11,20.67c-.05,2.28,.8,4.48,2.36,6.13,1.66,1.56,3.85,2.41,6.13,2.37,2.42,.14,9.66,.14,12.07,0,2.27,.05,4.48-.8,6.13-2.36,1.56-1.66,2.41-3.86,2.36-6.14,.14-2.42,.14-9.65,0-12.07h0Zm-3.12,14.67c-.5,1.27-1.51,2.28-2.78,2.78-1.93,.76-6.5,.59-8.62,.59s-6.7,.17-8.62-.59c-1.27-.5-2.28-1.51-2.78-2.78-.76-1.93-.59-6.5-.59-8.63s-.17-6.71,.59-8.63c.5-1.27,1.51-2.28,2.78-2.79,1.93-.76,6.5-.59,8.62-.59s6.7-.17,8.62,.59c1.27,.5,2.28,1.51,2.78,2.78,.76,1.93,.59,6.5,.59,8.63s.18,6.71-.59,8.63Z"/></svg>