<?xml version="1.0" encoding="UTF-8"?><svg id="Layer_1" xmlns="http://www.w3.org/2000/svg" viewBox="0 0 29.25 27"><defs><style>.cls-1{fill:#89cc9b;}</style></defs><path id="Icon_ionic-ios-leaf-2" class="cls-1" d="M28.54,22.13c-3.64-.56-3.92-.83-3.92-.83,1.1-5.2-1.58-10.62-5.36-13.75C14.21,3.39,6.54,6.41,.56,.09-.83-1.39-.02,16.64,7.46,23.48c3.68,3.42,8.99,4.45,13.68,2.64,1.08-.57,2.01-1.39,2.72-2.38,1.41,.49,2.87,.83,4.36,1,1.03,.13,1.55-2.42,.32-2.61Zm-6.45,.52c-5.46-1.64-10.22-5.7-13.3-8.87-.11-.12-.1-.3,.01-.41,.1-.1,.26-.11,.38-.02,4.03,3.34,8.63,5.91,13.59,7.59-.01,.63-.25,1.24-.68,1.71h0Z"/></svg>