<?xml version="1.0" encoding="UTF-8"?><svg id="Layer_1" xmlns="http://www.w3.org/2000/svg" viewBox="0 0 26.61 32"><defs><style>.cls-1{fill:#fff;}</style></defs><path id="Icon_awesome-lightbulb-2" class="cls-1" d="M7.26,28.39c0,.4,.15,.8,.4,1.11l1.29,1.6c.5,.59,1.24,.92,2.01,.9h4.66c.77,.02,1.51-.31,2.01-.9l1.29-1.6c.26-.31,.4-.7,.41-1.1v-2.4H7.26v2.4h0ZM0,11c.04,2.76,1.24,5.39,3.29,7.24,1.68,1.62,3.03,3.57,3.95,5.72,0,.02,0,.03,0,.05h12.11s0-.03,0-.05c.92-2.15,2.26-4.09,3.95-5.72,2.06-1.85,3.25-4.47,3.29-7.24C26.61,4.91,20.63-.02,13.26,0,5.55,.02,0,5.19,0,11ZM13.3,6c-3.33,0-6.04,2.24-6.04,5-.06,.61-.6,1.05-1.21,1-.61,.05-1.15-.39-1.21-1,0-3.86,3.8-7,8.47-7,.61-.05,1.15,.39,1.21,1-.06,.61-.6,1.05-1.21,1Z"/></svg>