<?xml version="1.0" encoding="UTF-8"?><svg id="Layer_1" xmlns="http://www.w3.org/2000/svg" viewBox="0 0 26.61 30.41"><defs><style>.cls-1{fill:#343232;}</style></defs><path id="Icon_awesome-lock-2" class="cls-1" d="M23.76,13.3h-1.43v-4.27C22.33,4.04,18.29,0,13.3,0S4.28,4.04,4.28,9.03v4.27h-1.42c-1.57,0-2.85,1.28-2.85,2.85,0,0,0,0,0,0v11.4C0,29.13,1.28,30.41,2.85,30.41H23.76c1.57,0,2.85-1.28,2.85-2.85v-11.4c0-1.57-1.27-2.85-2.85-2.85,0,0,0,0,0,0Zm-6.18,0H9.03v-4.27c0-2.36,1.91-4.28,4.28-4.28s4.28,1.91,4.28,4.28v4.27Z"/></svg>