<?xml version="1.0" encoding="UTF-8"?><svg id="Layer_1" xmlns="http://www.w3.org/2000/svg" xmlns:xlink="http://www.w3.org/1999/xlink" viewBox="0 0 24.66 36.67"><defs><style>.cls-1{fill:url(#linear-gradient);}.cls-2{fill:url(#linear-gradient-2);}</style><linearGradient id="linear-gradient" x1="-442.25" y1="564.5" x2="-442.25" y2="565.51" gradientTransform="translate(6242.76 20739.48) scale(14.1 -36.67)" gradientUnits="userSpaceOnUse"><stop offset="0" stop-color="#f04d50"/><stop offset="0" stop-color="#f04e50"/><stop offset=".31" stop-color="#f3734b"/><stop offset=".58" stop-color="#f68e49"/><stop offset=".82" stop-color="#f99f47"/><stop offset="1" stop-color="#faa544"/></linearGradient><linearGradient id="linear-gradient-2" x1="-440.41" y1="564.46" x2="-440.41" y2="565.47" gradientTransform="translate(5904.95 20610.41) scale(13.37 -36.45)" gradientUnits="userSpaceOnUse"><stop offset="0" stop-color="#5c839e"/><stop offset=".15" stop-color="#649fb4"/><stop offset=".33" stop-color="#6cb5c7"/><stop offset=".51" stop-color="#70c5d4"/><stop offset=".72" stop-color="#74cdda"/><stop offset="1" stop-color="#76cedb"/></linearGradient></defs><g id="my_logo_small"><g id="Logo"><path id="Fire_00000108307985126174695060000009656575006810083715_2" class="cls-1" d="M9.41,26.73c-.02-1.52,1.18-2.78,2.7-2.83,.41,0,.81,.07,1.19,.23l-.69-2.47h0l.57-1.35h0l-.37-2.15h0l1.14-1.51h0l-1.21-3.45h0l.25-1.51h0l-1.51-2.29h0l.11-2.35h0l-.23-2.31h0l.71-1.71h0l-.11-.96h0L14.1,0s-6.49,3.27-5.05,11.65c1.44,8.27-1.64,12.52-1.76,12.66h0c-.09-.11-2.12-2.49-.46-7.17,1.62-4.59-1.49-9.07-1.73-9.44h0c1.21,3.9,.26,8.16-2.5,11.17C.94,20.9,.02,23.43,0,26.05c-.02,7.4,4.59,9.83,7.97,10.62l2.7-7.67c-.77-.5-1.24-1.35-1.26-2.27Z"/><path id="Ice_00000149349234255393837640000000227780535162793621_2" class="cls-2" d="M24.29,22.23l-.11-3.47-1.44-2.15-1.51-2.95-2.1-2.99-.82-5.03-.87,2.95,.18,3.52,.89,2.95-.07,3.33-1.25,2.15-.58-2.95-.11-2.51-.91-1.12-1.53-2.99-1.95-2.42,.16-2.15-.07-2.26L14.08,.09l-2.19,1.99,.11,.98-.71,1.71,.23,2.31-.11,2.35,1.51,2.31-.25,1.51,1.21,3.45-1.14,1.51,.37,2.15-.59,1.35,.69,2.47c1.04,.41,1.73,1.4,1.76,2.52,.03,.92-.41,1.79-1.17,2.31h.09l1.99,7.54,1.1-.21,3.91-1.6,2.58-3.54,.34-3.08,.87-3.47-.37-2.4Z"/></g></g></svg>