<?xml version="1.0" encoding="UTF-8"?><svg id="Layer_1" xmlns="http://www.w3.org/2000/svg" viewBox="0 0 72.5 72.5"><defs><style>.cls-1{fill:#fff;}</style></defs><path id="Icon_metro-weather5-2" class="cls-1" d="M56.64,9.06c-.75,0-1.5,.05-2.24,.16C47.08-.8,33.02-2.99,22.99,4.33c-1.87,1.37-3.53,3.02-4.9,4.9-.74-.11-1.49-.16-2.24-.16C7.1,9.06,0,16.16,0,24.92s7.1,15.86,15.86,15.86c1.92,0,3.83-.35,5.62-1.04,8.44,7.43,21.09,7.43,29.54,0,1.79,.69,3.7,1.04,5.62,1.04,8.76,0,15.86-7.1,15.86-15.86s-7.1-15.86-15.86-15.86h0ZM13.59,45.31c-2.5,0-4.53,2.03-4.53,4.54,0,2.5,2.03,4.53,4.54,4.53,2.5,0,4.53-2.03,4.53-4.53,0-2.5-2.03-4.53-4.53-4.53,0,0,0,0,0,0Zm22.66,4.53c-2.5,0-4.53,2.03-4.53,4.53,0,2.5,2.03,4.53,4.53,4.53,2.5,0,4.53-2.03,4.53-4.53h0c0-2.5-2.03-4.53-4.53-4.53h0Zm22.66-4.53c-2.5,0-4.53,2.03-4.53,4.53s2.03,4.53,4.53,4.53,4.53-2.03,4.53-4.53h0c0-2.5-2.03-4.53-4.53-4.53h0Zm-9.06,18.12c-2.5,0-4.53,2.03-4.53,4.53s2.03,4.53,4.53,4.53,4.53-2.03,4.53-4.53c0-2.5-2.02-4.53-4.52-4.53h0Zm-27.19,0c-2.5,0-4.53,2.03-4.53,4.53s2.03,4.53,4.53,4.53,4.53-2.03,4.53-4.53c0-2.5-2.02-4.53-4.52-4.53h0Z"/></svg>