<?xml version="1.0" encoding="UTF-8"?><svg id="Layer_1" xmlns="http://www.w3.org/2000/svg" viewBox="0 0 30.85 30.85"><defs><style>.cls-1{fill:#fff;}</style></defs><path id="Icon_metro-weather4" class="cls-1" d="M24.1,3.86c-.32,0-.64,.02-.95,.07C20.03-.34,14.05-1.27,9.78,1.84c-.8,.58-1.5,1.29-2.08,2.08-.31-.05-.63-.07-.95-.07C3.02,3.86,0,6.88,0,10.61s3.02,6.75,6.75,6.75c.82,0,1.63-.15,2.39-.44,3.59,3.16,8.97,3.16,12.57,0,.76,.29,1.57,.44,2.39,.44,3.73,0,6.75-3.02,6.75-6.75s-3.02-6.75-6.75-6.75h0Zm0,11.57c-.58,0-1.16-.11-1.7-.31l-1.09-.42-.87,.76c-2.87,2.53-7.17,2.53-10.03,0l-.87-.76-1.09,.42c-.54,.21-1.12,.31-1.7,.31-2.66,0-4.82-2.16-4.82-4.82s2.16-4.82,4.82-4.82c.23,0,.45,.02,.68,.05l1.14,.17,.68-.93c2.49-3.41,7.26-4.16,10.67-1.67,.64,.47,1.2,1.03,1.67,1.67l.68,.93,1.15-.17c2.64-.37,5.08,1.46,5.45,4.09,.37,2.64-1.46,5.08-4.09,5.45-.23,.03-.45,.05-.68,.05h0Zm-18.32,3.86c-1.06,0-1.93,.86-1.93,1.93s.86,1.93,1.93,1.93,1.93-.86,1.93-1.93h0c0-1.06-.86-1.93-1.93-1.93h0Zm9.64,1.93c-1.06,0-1.93,.86-1.93,1.93s.86,1.93,1.93,1.93,1.93-.86,1.93-1.93h0c0-1.06-.86-1.93-1.93-1.93h0Zm9.64-1.93c-1.06,0-1.93,.86-1.93,1.93s.86,1.93,1.93,1.93,1.93-.86,1.93-1.93h0c0-1.06-.86-1.93-1.93-1.93h0Zm-3.86,7.71c-1.06,0-1.93,.86-1.93,1.93s.86,1.93,1.93,1.93,1.93-.86,1.93-1.93h0c0-1.06-.86-1.93-1.93-1.93h0Zm-11.57,0c-1.06,0-1.93,.86-1.93,1.93s.86,1.93,1.93,1.93,1.93-.86,1.93-1.93c0-1.06-.86-1.93-1.93-1.93h0Z"/></svg>