<?xml version="1.0" encoding="UTF-8"?>
<svg id="Logo" xmlns="http://www.w3.org/2000/svg" width="406.13" height="160.48" xmlns:xlink="http://www.w3.org/1999/xlink" viewBox="0 0 406.13 160.48">
  <defs>
    <style>
      .cls-1 {
        fill: url(#linear-gradient);
      }

      .cls-2 {
        fill: #293241;
      }

      .cls-3 {
        fill: url(#linear-gradient-2);
      }
    </style>
    <linearGradient id="linear-gradient" x1="30.86" y1="162.08" x2="30.86" y2="0" gradientUnits="userSpaceOnUse">
      <stop offset="0" stop-color="#fb4b4e"/>
      <stop offset="0" stop-color="#fb4c4d"/>
      <stop offset=".31" stop-color="#fc7248"/>
      <stop offset=".58" stop-color="#fd8e45"/>
      <stop offset=".82" stop-color="#fe9f42"/>
      <stop offset="1" stop-color="#ffa642"/>
    </linearGradient>
    <linearGradient id="linear-gradient-2" x1="78.64" y1="162.41" x2="78.64" y2=".49" gradientUnits="userSpaceOnUse">
      <stop offset="0" stop-color="#5c839e"/>
      <stop offset=".16" stop-color="#649eb4"/>
      <stop offset=".33" stop-color="#6ab5c6"/>
      <stop offset=".51" stop-color="#6fc5d3"/>
      <stop offset=".72" stop-color="#72cedb"/>
      <stop offset="1" stop-color="#73d2de"/>
    </linearGradient>
  </defs>
  <path id="Fire" class="cls-1" d="M41.18,116.96c-.15-6.69,5.16-12.23,11.85-12.38,1.85-.04,3.62,.34,5.21,1.05l-2.99-10.82s0,0,0-.01l2.51-5.93s0,0,0-.01l-1.6-9.36s0-.01,0-.02l5.02-6.61s0-.01,0-.02l-5.25-15.08s0,0,0-.01l1.14-6.62s0-.01,0-.02l-6.62-10.05s0,0,0-.01l.46-10.28h0s-1.02-10.08-1.02-10.08c0,0,0,0,0-.01l3.13-7.51s0,0,0-.01l-.5-4.25s0-.01,0-.02L61.72,0s-28.44,14.26-22.05,51.04c6.28,36.15-7.19,54.78-7.65,55.41,0,0-.02,0-.03,0-.4-.45-9.27-10.92-2.03-31.4,7.1-20.08-6.46-39.7-7.59-41.28-.01-.02-.04,0-.03,.02,7.12,21.85-2.83,39.21-10.92,48.89C4.08,91.45,.05,102.56,0,114c-.14,32.42,20.09,43.04,34.92,46.47l11.84-33.57c-3.28-2.1-5.49-5.75-5.58-9.94Z"/>
  <path id="Ice" class="cls-3" d="M106.31,97.31l-.54-15.23-6.33-9.44-6.6-12.94-9.17-13.07-3.64-21.97-3.77,12.94,.81,15.37,3.91,12.94-.27,14.56-5.53,9.44-2.43-12.94-.54-10.92-4.04-4.85-6.74-13.07-8.49-10.65,.67-9.44-.3-9.89L61.52,.49l-9.52,8.65,.5,4.26-3.13,7.52,1.02,10.08-.46,10.29,6.63,10.06-1.14,6.63,5.26,15.09-5.03,6.63,1.6,9.38-2.52,5.95,2.98,10.78c4.42,1.73,7.59,5.98,7.7,11.02,.09,4.15-1.92,7.86-5.05,10.11h.39s8.7,33.02,8.7,33.02l4.78-.94,17.12-7.01,11.32-15.5,1.48-13.48,3.77-15.23-1.62-10.51Z"/>
  <g id="ThermoSecure">
    <path class="cls-2" d="M122.61,128.63v-36.96h-7.08v-5.76h20.28v5.76h-7.08v36.96h-6.12Z"/>
    <path class="cls-2" d="M138.15,128.63v-42.72h6.12v15.24h.12c.64-.96,1.41-1.75,2.31-2.37,.9-.62,2.05-.93,3.45-.93,.76,0,1.52,.13,2.28,.39,.76,.26,1.44,.69,2.04,1.29,.6,.6,1.08,1.37,1.44,2.31,.36,.94,.54,2.09,.54,3.45v23.34h-6.12v-21.06c0-1.12-.26-2-.78-2.64-.52-.64-1.26-.96-2.22-.96-1.16,0-1.96,.36-2.4,1.08-.44,.72-.66,1.76-.66,3.12v20.46h-6.12Z"/>
    <path class="cls-2" d="M179.19,115.73h-12.12v4.14c0,.96,.27,1.7,.81,2.22,.54,.52,1.27,.78,2.19,.78,1.16,0,1.93-.34,2.31-1.02,.38-.68,.61-1.36,.69-2.04h6.12c0,2.68-.82,4.84-2.46,6.48-.8,.84-1.76,1.5-2.88,1.98-1.12,.48-2.38,.72-3.78,.72-1.92,0-3.55-.4-4.89-1.2-1.34-.8-2.37-1.86-3.09-3.18-.44-.8-.74-1.72-.9-2.76-.16-1.04-.24-2.18-.24-3.42v-10.02c0-1.24,.08-2.38,.24-3.42,.16-1.04,.46-1.96,.9-2.76,.72-1.32,1.75-2.38,3.09-3.18,1.34-.8,2.97-1.2,4.89-1.2,1.4,0,2.67,.24,3.81,.72,1.14,.48,2.11,1.14,2.91,1.98,1.6,1.8,2.4,4.06,2.4,6.78v8.4Zm-12.12-4.8h6v-3.48c0-1.16-.27-2.03-.81-2.61-.54-.58-1.27-.87-2.19-.87s-1.65,.29-2.19,.87c-.54,.58-.81,1.45-.81,2.61v3.48Z"/>
    <path class="cls-2" d="M183.69,128.63v-30.42h6.12v3.24c1.24-1.12,2.46-2,3.66-2.64,1.2-.64,2.68-.96,4.44-.96v6.48c-.6-.24-1.22-.36-1.86-.36s-1.33,.11-2.07,.33c-.74,.22-1.41,.59-2.01,1.11-.64,.52-1.16,1.2-1.56,2.04-.4,.84-.6,1.88-.6,3.12v18.06h-6.12Z"/>
    <path class="cls-2" d="M200.37,128.63v-30.42h6.12v2.94h.12c.64-.96,1.41-1.75,2.31-2.37,.9-.62,2.05-.93,3.45-.93,1.32,0,2.42,.32,3.3,.96,.88,.64,1.6,1.34,2.16,2.1,.76-.84,1.6-1.56,2.52-2.16,.92-.6,2.2-.9,3.84-.9,.76,0,1.54,.13,2.34,.39,.8,.26,1.52,.69,2.16,1.29,.64,.6,1.16,1.37,1.56,2.31,.4,.94,.6,2.09,.6,3.45v23.34h-6.12v-21.06c0-1.12-.26-2-.78-2.64-.52-.64-1.26-.96-2.22-.96-1.16,0-1.96,.36-2.4,1.08-.44,.72-.66,1.76-.66,3.12v20.46h-6.12v-21.06c0-1.12-.26-2-.78-2.64-.52-.64-1.26-.96-2.22-.96-1.16,0-1.96,.36-2.4,1.08-.44,.72-.66,1.76-.66,3.12v20.46h-6.12Z"/>
    <path class="cls-2" d="M235.35,108.41c0-1.24,.08-2.38,.24-3.42,.16-1.04,.46-1.96,.9-2.76,.72-1.32,1.75-2.38,3.09-3.18,1.34-.8,2.97-1.2,4.89-1.2s3.55,.4,4.89,1.2c1.34,.8,2.37,1.86,3.09,3.18,.44,.8,.74,1.72,.9,2.76,.16,1.04,.24,2.18,.24,3.42v10.02c0,1.24-.08,2.38-.24,3.42-.16,1.04-.46,1.96-.9,2.76-.72,1.32-1.75,2.38-3.09,3.18-1.34,.8-2.97,1.2-4.89,1.2s-3.55-.4-4.89-1.2c-1.34-.8-2.37-1.86-3.09-3.18-.44-.8-.74-1.72-.9-2.76-.16-1.04-.24-2.18-.24-3.42v-10.02Zm6.12,10.98c0,1.16,.27,2.03,.81,2.61,.54,.58,1.27,.87,2.19,.87s1.65-.29,2.19-.87c.54-.58,.81-1.45,.81-2.61v-11.94c0-1.16-.27-2.03-.81-2.61-.54-.58-1.27-.87-2.19-.87s-1.65,.29-2.19,.87c-.54,.58-.81,1.45-.81,2.61v11.94Z"/>
    <path class="cls-2" d="M278.24,98.21h-6.12v-1.38c0-1.4-.33-2.61-.99-3.63s-1.77-1.53-3.33-1.53c-.84,0-1.52,.16-2.04,.48-.52,.32-.94,.72-1.26,1.2-.32,.52-.54,1.11-.66,1.77-.12,.66-.18,1.35-.18,2.07,0,.84,.03,1.54,.09,2.1,.06,.56,.21,1.06,.45,1.5,.24,.44,.59,.82,1.05,1.14,.46,.32,1.09,.64,1.89,.96l4.68,1.86c1.36,.52,2.46,1.13,3.3,1.83,.84,.7,1.5,1.51,1.98,2.43,.44,.96,.74,2.05,.9,3.27,.16,1.22,.24,2.61,.24,4.17,0,1.8-.18,3.47-.54,5.01-.36,1.54-.94,2.85-1.74,3.93-.84,1.12-1.94,2-3.3,2.64-1.36,.64-3.02,.96-4.98,.96-1.48,0-2.86-.26-4.14-.78-1.28-.52-2.38-1.24-3.3-2.16-.92-.92-1.65-1.99-2.19-3.21-.54-1.22-.81-2.55-.81-3.99v-2.28h6.12v1.92c0,1.12,.33,2.13,.99,3.03,.66,.9,1.77,1.35,3.33,1.35,1.04,0,1.85-.15,2.43-.45,.58-.3,1.03-.73,1.35-1.29,.32-.56,.51-1.23,.57-2.01,.06-.78,.09-1.65,.09-2.61,0-1.12-.04-2.04-.12-2.76-.08-.72-.24-1.3-.48-1.74-.28-.44-.65-.8-1.11-1.08-.46-.28-1.07-.58-1.83-.9l-4.38-1.8c-2.64-1.08-4.41-2.51-5.31-4.29-.9-1.78-1.35-4.01-1.35-6.69,0-1.6,.22-3.12,.66-4.56s1.1-2.68,1.98-3.72c.84-1.04,1.91-1.87,3.21-2.49,1.3-.62,2.85-.93,4.65-.93,1.52,0,2.91,.28,4.17,.84,1.26,.56,2.35,1.3,3.27,2.22,1.84,1.92,2.76,4.12,2.76,6.6v3Z"/>
    <path class="cls-2" d="M300.14,115.73h-12.12v4.14c0,.96,.27,1.7,.81,2.22,.54,.52,1.27,.78,2.19,.78,1.16,0,1.93-.34,2.31-1.02,.38-.68,.61-1.36,.69-2.04h6.12c0,2.68-.82,4.84-2.46,6.48-.8,.84-1.76,1.5-2.88,1.98-1.12,.48-2.38,.72-3.78,.72-1.92,0-3.55-.4-4.89-1.2-1.34-.8-2.37-1.86-3.09-3.18-.44-.8-.74-1.72-.9-2.76-.16-1.04-.24-2.18-.24-3.42v-10.02c0-1.24,.08-2.38,.24-3.42,.16-1.04,.46-1.96,.9-2.76,.72-1.32,1.75-2.38,3.09-3.18,1.34-.8,2.97-1.2,4.89-1.2,1.4,0,2.67,.24,3.81,.72,1.14,.48,2.11,1.14,2.91,1.98,1.6,1.8,2.4,4.06,2.4,6.78v8.4Zm-12.12-4.8h6v-3.48c0-1.16-.27-2.03-.81-2.61-.54-.58-1.27-.87-2.19-.87s-1.65,.29-2.19,.87c-.54,.58-.81,1.45-.81,2.61v3.48Z"/>
    <path class="cls-2" d="M311.12,119.87c0,.96,.27,1.7,.81,2.22,.54,.52,1.27,.78,2.19,.78,1.16,0,1.93-.34,2.31-1.02,.38-.68,.61-1.36,.69-2.04h6.12c0,2.68-.82,4.84-2.46,6.48-.8,.84-1.76,1.5-2.88,1.98-1.12,.48-2.38,.72-3.78,.72-1.92,0-3.55-.4-4.89-1.2-1.34-.8-2.37-1.86-3.09-3.18-.44-.8-.74-1.72-.9-2.76-.16-1.04-.24-2.18-.24-3.42v-10.02c0-1.24,.08-2.38,.24-3.42,.16-1.04,.46-1.96,.9-2.76,.72-1.32,1.75-2.38,3.09-3.18,1.34-.8,2.97-1.2,4.89-1.2,1.4,0,2.67,.24,3.81,.72,1.14,.48,2.11,1.14,2.91,1.98,1.6,1.8,2.4,4.14,2.4,7.02h-6.12c0-1.24-.27-2.15-.81-2.73-.54-.58-1.27-.87-2.19-.87s-1.65,.29-2.19,.87c-.54,.58-.81,1.45-.81,2.61v12.42Z"/>
    <path class="cls-2" d="M345.14,98.21v30.42h-6.12v-2.94h-.12c-.64,.96-1.41,1.75-2.31,2.37-.9,.62-2.05,.93-3.45,.93-.76,0-1.52-.13-2.28-.39-.76-.26-1.44-.69-2.04-1.29-.6-.6-1.08-1.37-1.44-2.31-.36-.94-.54-2.09-.54-3.45v-23.34h6.12v21.06c0,1.12,.26,2,.78,2.64,.52,.64,1.26,.96,2.22,.96,1.16,0,1.96-.36,2.4-1.08,.44-.72,.66-1.76,.66-3.12v-20.46h6.12Z"/>
    <path class="cls-2" d="M350.18,128.63v-30.42h6.12v3.24c1.24-1.12,2.46-2,3.66-2.64,1.2-.64,2.68-.96,4.44-.96v6.48c-.6-.24-1.22-.36-1.86-.36s-1.33,.11-2.07,.33c-.74,.22-1.41,.59-2.01,1.11-.64,.52-1.16,1.2-1.56,2.04-.4,.84-.6,1.88-.6,3.12v18.06h-6.12Z"/>
    <path class="cls-2" d="M384.56,115.73h-12.12v4.14c0,.96,.27,1.7,.81,2.22,.54,.52,1.27,.78,2.19,.78,1.16,0,1.93-.34,2.31-1.02,.38-.68,.61-1.36,.69-2.04h6.12c0,2.68-.82,4.84-2.46,6.48-.8,.84-1.76,1.5-2.88,1.98-1.12,.48-2.38,.72-3.78,.72-1.92,0-3.55-.4-4.89-1.2-1.34-.8-2.37-1.86-3.09-3.18-.44-.8-.74-1.72-.9-2.76-.16-1.04-.24-2.18-.24-3.42v-10.02c0-1.24,.08-2.38,.24-3.42,.16-1.04,.46-1.96,.9-2.76,.72-1.32,1.75-2.38,3.09-3.18,1.34-.8,2.97-1.2,4.89-1.2,1.4,0,2.67,.24,3.81,.72,1.14,.48,2.11,1.14,2.91,1.98,1.6,1.8,2.4,4.06,2.4,6.78v8.4Zm-12.12-4.8h6v-3.48c0-1.16-.27-2.03-.81-2.61-.54-.58-1.27-.87-2.19-.87s-1.65,.29-2.19,.87c-.54,.58-.81,1.45-.81,2.61v3.48Z"/>
    <path class="cls-2" d="M389.23,115.31v-14.37h-2.75v-2.24h7.88v2.24h-2.75v14.37h-2.38Z"/>
    <path class="cls-2" d="M395.41,115.31v-16.6h2.29l3.06,8.79h.05l3.03-8.79h2.31v16.6h-2.38v-10.1h-.05l-2.35,7.14h-1.19l-2.33-7.14h-.05v10.1h-2.38Z"/>
  </g>
  <g id="by_HouseCom" data-name="by HouseCom">
    <path d="M276.73,142.54c0,3.06-2.12,5.32-5.03,5.32-1.87,0-3.09-.85-3.52-2.33l-.44,2.26h-.83l2.52-12.61h.85l-1.07,5.41c.85-1.09,2.12-1.73,3.69-1.73,2.29,0,3.84,1.41,3.84,3.69Zm-.87,.05c0-1.89-1.16-2.97-3.15-2.97-2.4,0-4.16,1.89-4.16,4.5,0,1.89,1.16,2.97,3.16,2.97,2.4,0,4.15-1.9,4.15-4.5Z"/>
    <path d="M287.03,138.92l-6.63,10.18c-1.02,1.58-1.82,2.06-3.01,2.06-.78,0-1.58-.27-2.01-.78l.49-.63c.39,.44,.92,.66,1.6,.66,.78,0,1.41-.36,2.18-1.53l.75-1.12-2.24-8.84h.87l1.99,7.94,5.13-7.94h.88Z"/>
    <path d="M303.83,135.9l-2.38,11.9h-.87l1.12-5.64h-7.96l-1.12,5.64h-.87l2.38-11.9h.87l-1.09,5.46h7.96l1.09-5.46h.87Z"/>
    <path d="M305.17,144.17c0-3.04,2.12-5.32,5.08-5.32,2.4,0,3.93,1.43,3.93,3.69,0,3.06-2.12,5.32-5.08,5.32-2.4,0-3.93-1.45-3.93-3.69Zm8.16-1.58c0-1.89-1.16-2.97-3.14-2.97-2.4,0-4.16,1.9-4.16,4.5,0,1.89,1.16,2.97,3.14,2.97,2.4,0,4.16-1.89,4.16-4.5Z"/>
    <path d="M325.42,138.92l-1.77,8.87h-.83l.34-1.68c-.87,1.22-2.14,1.75-3.64,1.75-2.01,0-3.11-1.09-3.11-2.84,0-.31,.03-.63,.1-.97l1.02-5.13h.85l-1.02,5.13c-.07,.31-.08,.59-.08,.85,0,1.38,.82,2.19,2.46,2.19,2.01,0,3.42-1.14,3.86-3.35l.97-4.83h.85Z"/>
    <path d="M326.2,146.74l.46-.66c.66,.63,1.84,1.04,3.06,1.04,1.84,0,2.89-.7,2.89-1.84,0-2.24-5.12-.75-5.12-3.74,0-1.63,1.48-2.69,3.71-2.69,1.1,0,2.28,.32,2.92,.87l-.39,.66c-.68-.53-1.67-.78-2.6-.78-1.75,0-2.8,.75-2.8,1.85,0,2.29,5.13,.8,5.13,3.74,0,1.68-1.51,2.67-3.81,2.67-1.41,0-2.77-.48-3.45-1.12Z"/>
    <path d="M336.08,143.55c-.02,.19-.03,.37-.03,.56,0,1.92,1.12,2.99,3.28,2.99,1.26,0,2.35-.44,3.04-1.19l.39,.59c-.78,.85-2.09,1.36-3.5,1.36-2.52,0-4.05-1.39-4.05-3.72,0-3.03,2.06-5.29,4.84-5.29,2.31,0,3.77,1.39,3.77,3.71,0,.34-.05,.7-.1,.99h-7.65Zm.1-.66h6.83c.02-.15,.02-.29,.02-.44,0-1.84-1.22-2.86-2.99-2.86-1.96,0-3.43,1.33-3.86,3.3Z"/>
    <path d="M345.75,142.99c0-3.86,2.74-7.17,7.21-7.17,1.85,0,3.33,.59,4.13,1.63l-.61,.56c-.78-.92-1.97-1.39-3.59-1.39-3.84,0-6.27,2.91-6.27,6.34,0,2.46,1.6,4.13,4.67,4.13,1.63,0,2.96-.49,3.93-1.43l.53,.59c-1.04,1.04-2.69,1.63-4.52,1.63-3.52,0-5.47-1.97-5.47-4.9Z"/>
    <path d="M357.14,144.17c0-3.04,2.12-5.32,5.08-5.32,2.4,0,3.93,1.43,3.93,3.69,0,3.06-2.12,5.32-5.08,5.32-2.4,0-3.93-1.45-3.93-3.69Zm8.16-1.58c0-1.89-1.16-2.97-3.14-2.97-2.4,0-4.16,1.9-4.16,4.5,0,1.89,1.16,2.97,3.14,2.97,2.4,0,4.16-1.89,4.16-4.5Z"/>
    <path d="M383.54,141.66c0,.32-.03,.65-.1,1l-1.04,5.13h-.85l1.04-5.13c.07-.31,.08-.59,.08-.87,0-1.36-.8-2.18-2.4-2.18-1.9,0-3.31,1.07-3.72,3.14l-1.02,5.03h-.85l1.04-5.13c.07-.31,.08-.59,.08-.87,0-1.36-.8-2.18-2.4-2.18-1.96,0-3.33,1.16-3.77,3.35l-.97,4.83h-.85l1.77-8.87h.83l-.34,1.67c.85-1.21,2.11-1.73,3.55-1.73,1.65,0,2.65,.75,2.96,1.99,.88-1.33,2.24-1.99,3.86-1.99,2.02,0,3.09,1.07,3.09,2.8Z"/>
  </g>
</svg>