<?xml version="1.0" encoding="utf-8"?>
<!-- Generator: Adobe Illustrator 26.5.0, SVG Export Plug-In . SVG Version: 6.00 Build 0)  -->
<svg version="1.1" xmlns="http://www.w3.org/2000/svg" xmlns:xlink="http://www.w3.org/1999/xlink" x="0px" y="0px"
	 viewBox="0 0 406.1 160.5" style="enable-background:new 0 0 406.1 160.5;" xml:space="preserve">
<style type="text/css">
	.st0{fill:url(#Fire_00000144332423066940932410000016416333516714772354_);}
	.st1{fill:url(#Ice_00000030460748302780551170000004215362332143588006_);}
	.st2{fill:#293241;}
</style>
<g id="Layer_1">
</g>
<g id="Logo">
	
		<linearGradient id="Fire_00000163768617467637312080000007790607806025148085_" gradientUnits="userSpaceOnUse" x1="30.8613" y1="162.0835" x2="30.8613" y2="1.265359e-05">
		<stop  offset="0" style="stop-color:#FB4B4E"/>
		<stop  offset="8.178830e-03" style="stop-color:#FB4C4E"/>
		<stop  offset="0.3066" style="stop-color:#FD7349"/>
		<stop  offset="0.5812" style="stop-color:#FE8F45"/>
		<stop  offset="0.8212" style="stop-color:#FFA043"/>
		<stop  offset="1" style="stop-color:#FFA642"/>
	</linearGradient>
	
		<path id="Fire_00000108307985126174695060000009656575006810083715_" style="fill:url(#Fire_00000163768617467637312080000007790607806025148085_);" d="
		M41.2,117c-0.1-6.7,5.2-12.2,11.8-12.4c1.9,0,3.6,0.3,5.2,1l-3-10.8c0,0,0,0,0,0l2.5-5.9c0,0,0,0,0,0l-1.6-9.4c0,0,0,0,0,0l5-6.6
		c0,0,0,0,0,0l-5.3-15.1c0,0,0,0,0,0l1.1-6.6c0,0,0,0,0,0l-6.6-10c0,0,0,0,0,0l0.5-10.3c0,0,0,0,0,0l-1-10.1c0,0,0,0,0,0l3.1-7.5
		c0,0,0,0,0,0l-0.5-4.2c0,0,0,0,0,0L61.7,0c0,0-28.4,14.3-22.1,51c6.3,36.2-7.2,54.8-7.7,55.4c0,0,0,0,0,0c-0.4-0.5-9.3-10.9-2-31.4
		c7.1-20.1-6.5-39.7-7.6-41.3c0,0,0,0,0,0c7.1,21.9-2.8,39.2-10.9,48.9C4.1,91.5,0.1,102.6,0,114c-0.1,32.4,20.1,43,34.9,46.5
		l11.8-33.6C43.5,124.8,41.3,121.2,41.2,117z"/>
	
		<linearGradient id="Ice_00000003099769305356933540000012023739703617225648_" gradientUnits="userSpaceOnUse" x1="78.6433" y1="162.415" x2="78.6433" y2="0.4904">
		<stop  offset="0" style="stop-color:#5C839E"/>
		<stop  offset="0.1552" style="stop-color:#649FB4"/>
		<stop  offset="0.327" style="stop-color:#6BB5C7"/>
		<stop  offset="0.513" style="stop-color:#6FC5D4"/>
		<stop  offset="0.7217" style="stop-color:#72CFDC"/>
		<stop  offset="1" style="stop-color:#73D2DE"/>
	</linearGradient>
	
		<path id="Ice_00000149349234255393837640000000227780535162793621_" style="fill:url(#Ice_00000003099769305356933540000012023739703617225648_);" d="
		M106.3,97.3l-0.5-15.2l-6.3-9.4l-6.6-12.9l-9.2-13.1l-3.6-22l-3.8,12.9L77.1,53L81,65.9l-0.3,14.6l-5.5,9.4L72.7,77L72.2,66l-4-4.9
		l-6.7-13.1l-8.5-10.6l0.7-9.4l-0.3-9.9l8.2-17.7L52,9.1l0.5,4.3l-3.1,7.5l1,10.1l-0.5,10.3l6.6,10.1L55.4,58l5.3,15.1l-5,6.6
		l1.6,9.4L54.7,95l3,10.8c4.4,1.7,7.6,6,7.7,11c0.1,4.2-1.9,7.9-5.1,10.1l0.4,0l8.7,33l4.8-0.9l17.1-7l11.3-15.5l1.5-13.5l3.8-15.2
		L106.3,97.3z"/>
	<g id="ThermoSecure">
		<path class="st2" d="M122.6,128.6v-37h-7.1v-5.8h20.3v5.8h-7.1v37H122.6z"/>
		<path class="st2" d="M138.1,128.6V85.9h6.1v15.2h0.1c0.6-1,1.4-1.7,2.3-2.4c0.9-0.6,2-0.9,3.5-0.9c0.8,0,1.5,0.1,2.3,0.4
			c0.8,0.3,1.4,0.7,2,1.3c0.6,0.6,1.1,1.4,1.4,2.3c0.4,0.9,0.5,2.1,0.5,3.5v23.3h-6.1v-21.1c0-1.1-0.3-2-0.8-2.6
			c-0.5-0.6-1.3-1-2.2-1c-1.2,0-2,0.4-2.4,1.1c-0.4,0.7-0.7,1.8-0.7,3.1v20.5H138.1z"/>
		<path class="st2" d="M179.2,115.7h-12.1v4.1c0,1,0.3,1.7,0.8,2.2c0.5,0.5,1.3,0.8,2.2,0.8c1.2,0,1.9-0.3,2.3-1
			c0.4-0.7,0.6-1.4,0.7-2h6.1c0,2.7-0.8,4.8-2.5,6.5c-0.8,0.8-1.8,1.5-2.9,2c-1.1,0.5-2.4,0.7-3.8,0.7c-1.9,0-3.6-0.4-4.9-1.2
			c-1.3-0.8-2.4-1.9-3.1-3.2c-0.4-0.8-0.7-1.7-0.9-2.8c-0.2-1-0.2-2.2-0.2-3.4v-10c0-1.2,0.1-2.4,0.2-3.4c0.2-1,0.5-2,0.9-2.8
			c0.7-1.3,1.7-2.4,3.1-3.2c1.3-0.8,3-1.2,4.9-1.2c1.4,0,2.7,0.2,3.8,0.7c1.1,0.5,2.1,1.1,2.9,2c1.6,1.8,2.4,4.1,2.4,6.8V115.7z
			 M167.1,110.9h6v-3.5c0-1.2-0.3-2-0.8-2.6c-0.5-0.6-1.3-0.9-2.2-0.9c-0.9,0-1.6,0.3-2.2,0.9c-0.5,0.6-0.8,1.5-0.8,2.6V110.9z"/>
		<path class="st2" d="M183.7,128.6V98.2h6.1v3.2c1.2-1.1,2.5-2,3.7-2.6c1.2-0.6,2.7-1,4.4-1v6.5c-0.6-0.2-1.2-0.4-1.9-0.4
			c-0.6,0-1.3,0.1-2.1,0.3c-0.7,0.2-1.4,0.6-2,1.1c-0.6,0.5-1.2,1.2-1.6,2c-0.4,0.8-0.6,1.9-0.6,3.1v18.1H183.7z"/>
		<path class="st2" d="M200.4,128.6V98.2h6.1v2.9h0.1c0.6-1,1.4-1.7,2.3-2.4c0.9-0.6,2-0.9,3.4-0.9c1.3,0,2.4,0.3,3.3,1
			c0.9,0.6,1.6,1.3,2.2,2.1c0.8-0.8,1.6-1.6,2.5-2.2c0.9-0.6,2.2-0.9,3.8-0.9c0.8,0,1.5,0.1,2.3,0.4c0.8,0.3,1.5,0.7,2.2,1.3
			c0.6,0.6,1.2,1.4,1.6,2.3c0.4,0.9,0.6,2.1,0.6,3.5v23.3h-6.1v-21.1c0-1.1-0.3-2-0.8-2.6c-0.5-0.6-1.3-1-2.2-1
			c-1.2,0-2,0.4-2.4,1.1c-0.4,0.7-0.7,1.8-0.7,3.1v20.5h-6.1v-21.1c0-1.1-0.3-2-0.8-2.6c-0.5-0.6-1.3-1-2.2-1c-1.2,0-2,0.4-2.4,1.1
			c-0.4,0.7-0.7,1.8-0.7,3.1v20.5H200.4z"/>
		<path class="st2" d="M235.3,108.4c0-1.2,0.1-2.4,0.2-3.4c0.2-1,0.5-2,0.9-2.8c0.7-1.3,1.7-2.4,3.1-3.2c1.3-0.8,3-1.2,4.9-1.2
			s3.5,0.4,4.9,1.2c1.3,0.8,2.4,1.9,3.1,3.2c0.4,0.8,0.7,1.7,0.9,2.8c0.2,1,0.2,2.2,0.2,3.4v10c0,1.2-0.1,2.4-0.2,3.4
			c-0.2,1-0.5,2-0.9,2.8c-0.7,1.3-1.8,2.4-3.1,3.2c-1.3,0.8-3,1.2-4.9,1.2s-3.5-0.4-4.9-1.2c-1.3-0.8-2.4-1.9-3.1-3.2
			c-0.4-0.8-0.7-1.7-0.9-2.8c-0.2-1-0.2-2.2-0.2-3.4V108.4z M241.5,119.4c0,1.2,0.3,2,0.8,2.6c0.5,0.6,1.3,0.9,2.2,0.9
			s1.7-0.3,2.2-0.9c0.5-0.6,0.8-1.4,0.8-2.6v-11.9c0-1.2-0.3-2-0.8-2.6c-0.5-0.6-1.3-0.9-2.2-0.9s-1.6,0.3-2.2,0.9
			c-0.5,0.6-0.8,1.5-0.8,2.6V119.4z"/>
		<path class="st2" d="M278.2,98.2h-6.1v-1.4c0-1.4-0.3-2.6-1-3.6s-1.8-1.5-3.3-1.5c-0.8,0-1.5,0.2-2,0.5c-0.5,0.3-0.9,0.7-1.3,1.2
			c-0.3,0.5-0.5,1.1-0.7,1.8c-0.1,0.7-0.2,1.3-0.2,2.1c0,0.8,0,1.5,0.1,2.1c0.1,0.6,0.2,1.1,0.4,1.5c0.2,0.4,0.6,0.8,1.1,1.1
			c0.5,0.3,1.1,0.6,1.9,1l4.7,1.9c1.4,0.5,2.5,1.1,3.3,1.8c0.8,0.7,1.5,1.5,2,2.4c0.4,1,0.7,2.1,0.9,3.3c0.2,1.2,0.2,2.6,0.2,4.2
			c0,1.8-0.2,3.5-0.5,5c-0.4,1.5-0.9,2.8-1.7,3.9c-0.8,1.1-1.9,2-3.3,2.6c-1.4,0.6-3,1-5,1c-1.5,0-2.9-0.3-4.1-0.8
			c-1.3-0.5-2.4-1.2-3.3-2.2c-0.9-0.9-1.6-2-2.2-3.2c-0.5-1.2-0.8-2.5-0.8-4v-2.3h6.1v1.9c0,1.1,0.3,2.1,1,3
			c0.7,0.9,1.8,1.4,3.3,1.4c1,0,1.8-0.2,2.4-0.5c0.6-0.3,1-0.7,1.4-1.3c0.3-0.6,0.5-1.2,0.6-2c0.1-0.8,0.1-1.7,0.1-2.6
			c0-1.1,0-2-0.1-2.8c-0.1-0.7-0.2-1.3-0.5-1.7c-0.3-0.4-0.7-0.8-1.1-1.1c-0.5-0.3-1.1-0.6-1.8-0.9l-4.4-1.8
			c-2.6-1.1-4.4-2.5-5.3-4.3c-0.9-1.8-1.3-4-1.3-6.7c0-1.6,0.2-3.1,0.7-4.6s1.1-2.7,2-3.7c0.8-1,1.9-1.9,3.2-2.5
			c1.3-0.6,2.8-0.9,4.7-0.9c1.5,0,2.9,0.3,4.2,0.8c1.3,0.6,2.3,1.3,3.3,2.2c1.8,1.9,2.8,4.1,2.8,6.6V98.2z"/>
		<path class="st2" d="M300.1,115.7H288v4.1c0,1,0.3,1.7,0.8,2.2c0.5,0.5,1.3,0.8,2.2,0.8c1.2,0,1.9-0.3,2.3-1
			c0.4-0.7,0.6-1.4,0.7-2h6.1c0,2.7-0.8,4.8-2.5,6.5c-0.8,0.8-1.8,1.5-2.9,2c-1.1,0.5-2.4,0.7-3.8,0.7c-1.9,0-3.5-0.4-4.9-1.2
			c-1.3-0.8-2.4-1.9-3.1-3.2c-0.4-0.8-0.7-1.7-0.9-2.8c-0.2-1-0.2-2.2-0.2-3.4v-10c0-1.2,0.1-2.4,0.2-3.4c0.2-1,0.5-2,0.9-2.8
			c0.7-1.3,1.7-2.4,3.1-3.2c1.3-0.8,3-1.2,4.9-1.2c1.4,0,2.7,0.2,3.8,0.7c1.1,0.5,2.1,1.1,2.9,2c1.6,1.8,2.4,4.1,2.4,6.8V115.7z
			 M288,110.9h6v-3.5c0-1.2-0.3-2-0.8-2.6c-0.5-0.6-1.3-0.9-2.2-0.9s-1.6,0.3-2.2,0.9c-0.5,0.6-0.8,1.5-0.8,2.6V110.9z"/>
		<path class="st2" d="M311.1,119.9c0,1,0.3,1.7,0.8,2.2c0.5,0.5,1.3,0.8,2.2,0.8c1.2,0,1.9-0.3,2.3-1c0.4-0.7,0.6-1.4,0.7-2h6.1
			c0,2.7-0.8,4.8-2.5,6.5c-0.8,0.8-1.8,1.5-2.9,2c-1.1,0.5-2.4,0.7-3.8,0.7c-1.9,0-3.6-0.4-4.9-1.2c-1.3-0.8-2.4-1.9-3.1-3.2
			c-0.4-0.8-0.7-1.7-0.9-2.8c-0.2-1-0.2-2.2-0.2-3.4v-10c0-1.2,0.1-2.4,0.2-3.4c0.2-1,0.5-2,0.9-2.8c0.7-1.3,1.8-2.4,3.1-3.2
			c1.3-0.8,3-1.2,4.9-1.2c1.4,0,2.7,0.2,3.8,0.7c1.1,0.5,2.1,1.1,2.9,2c1.6,1.8,2.4,4.1,2.4,7h-6.1c0-1.2-0.3-2.1-0.8-2.7
			c-0.5-0.6-1.3-0.9-2.2-0.9c-0.9,0-1.7,0.3-2.2,0.9c-0.5,0.6-0.8,1.5-0.8,2.6V119.9z"/>
		<path class="st2" d="M345.1,98.2v30.4H339v-2.9h-0.1c-0.6,1-1.4,1.8-2.3,2.4c-0.9,0.6-2,0.9-3.4,0.9c-0.8,0-1.5-0.1-2.3-0.4
			c-0.8-0.3-1.4-0.7-2-1.3c-0.6-0.6-1.1-1.4-1.4-2.3c-0.4-0.9-0.5-2.1-0.5-3.5V98.2h6.1v21.1c0,1.1,0.3,2,0.8,2.6
			c0.5,0.6,1.3,1,2.2,1c1.2,0,2-0.4,2.4-1.1c0.4-0.7,0.7-1.8,0.7-3.1V98.2H345.1z"/>
		<path class="st2" d="M350.2,128.6V98.2h6.1v3.2c1.2-1.1,2.5-2,3.7-2.6c1.2-0.6,2.7-1,4.4-1v6.5c-0.6-0.2-1.2-0.4-1.9-0.4
			c-0.6,0-1.3,0.1-2.1,0.3c-0.7,0.2-1.4,0.6-2,1.1c-0.6,0.5-1.2,1.2-1.6,2c-0.4,0.8-0.6,1.9-0.6,3.1v18.1H350.2z"/>
		<path class="st2" d="M384.6,115.7h-12.1v4.1c0,1,0.3,1.7,0.8,2.2c0.5,0.5,1.3,0.8,2.2,0.8c1.2,0,1.9-0.3,2.3-1
			c0.4-0.7,0.6-1.4,0.7-2h6.1c0,2.7-0.8,4.8-2.5,6.5c-0.8,0.8-1.8,1.5-2.9,2c-1.1,0.5-2.4,0.7-3.8,0.7c-1.9,0-3.5-0.4-4.9-1.2
			c-1.3-0.8-2.4-1.9-3.1-3.2c-0.4-0.8-0.7-1.7-0.9-2.8c-0.2-1-0.2-2.2-0.2-3.4v-10c0-1.2,0.1-2.4,0.2-3.4c0.2-1,0.5-2,0.9-2.8
			c0.7-1.3,1.7-2.4,3.1-3.2c1.3-0.8,3-1.2,4.9-1.2c1.4,0,2.7,0.2,3.8,0.7c1.1,0.5,2.1,1.1,2.9,2c1.6,1.8,2.4,4.1,2.4,6.8V115.7z
			 M372.4,110.9h6v-3.5c0-1.2-0.3-2-0.8-2.6c-0.5-0.6-1.3-0.9-2.2-0.9s-1.6,0.3-2.2,0.9c-0.5,0.6-0.8,1.5-0.8,2.6V110.9z"/>
		<path class="st2" d="M389.2,115.3v-14.4h-2.8v-2.2h7.9v2.2h-2.8v14.4H389.2z"/>
		<path class="st2" d="M395.4,115.3V98.7h2.3l3.1,8.8h0l3-8.8h2.3v16.6h-2.4v-10.1h0l-2.4,7.1h-1.2l-2.3-7.1h0v10.1H395.4z"/>
	</g>
	<g id="by_HouseCom">
		<path d="M276.7,142.5c0,3.1-2.1,5.3-5,5.3c-1.9,0-3.1-0.9-3.5-2.3l-0.4,2.3h-0.8l2.5-12.6h0.8l-1.1,5.4c0.8-1.1,2.1-1.7,3.7-1.7
			C275.2,138.9,276.7,140.3,276.7,142.5z M275.9,142.6c0-1.9-1.2-3-3.1-3c-2.4,0-4.2,1.9-4.2,4.5c0,1.9,1.2,3,3.2,3
			C274.1,147.1,275.9,145.2,275.9,142.6z"/>
		<path d="M287,138.9l-6.6,10.2c-1,1.6-1.8,2.1-3,2.1c-0.8,0-1.6-0.3-2-0.8l0.5-0.6c0.4,0.4,0.9,0.7,1.6,0.7c0.8,0,1.4-0.4,2.2-1.5
			l0.7-1.1l-2.2-8.8h0.9l2,7.9l5.1-7.9H287z"/>
		<path d="M303.8,135.9l-2.4,11.9h-0.9l1.1-5.6h-8l-1.1,5.6h-0.9l2.4-11.9h0.9l-1.1,5.5h8l1.1-5.5H303.8z"/>
		<path d="M305.2,144.2c0-3,2.1-5.3,5.1-5.3c2.4,0,3.9,1.4,3.9,3.7c0,3.1-2.1,5.3-5.1,5.3C306.7,147.9,305.2,146.4,305.2,144.2z
			 M313.3,142.6c0-1.9-1.2-3-3.1-3c-2.4,0-4.2,1.9-4.2,4.5c0,1.9,1.2,3,3.1,3C311.6,147.1,313.3,145.2,313.3,142.6z"/>
		<path d="M325.4,138.9l-1.8,8.9h-0.8l0.3-1.7c-0.9,1.2-2.1,1.8-3.6,1.8c-2,0-3.1-1.1-3.1-2.8c0-0.3,0-0.6,0.1-1l1-5.1h0.8l-1,5.1
			c-0.1,0.3-0.1,0.6-0.1,0.8c0,1.4,0.8,2.2,2.5,2.2c2,0,3.4-1.1,3.9-3.3l1-4.8H325.4z"/>
		<path d="M326.2,146.7l0.5-0.7c0.7,0.6,1.8,1,3.1,1c1.8,0,2.9-0.7,2.9-1.8c0-2.2-5.1-0.7-5.1-3.7c0-1.6,1.5-2.7,3.7-2.7
			c1.1,0,2.3,0.3,2.9,0.9l-0.4,0.7c-0.7-0.5-1.7-0.8-2.6-0.8c-1.8,0-2.8,0.7-2.8,1.9c0,2.3,5.1,0.8,5.1,3.7c0,1.7-1.5,2.7-3.8,2.7
			C328.2,147.9,326.9,147.4,326.2,146.7z"/>
		<path d="M336.1,143.5c0,0.2,0,0.4,0,0.6c0,1.9,1.1,3,3.3,3c1.3,0,2.3-0.4,3-1.2l0.4,0.6c-0.8,0.8-2.1,1.4-3.5,1.4
			c-2.5,0-4-1.4-4-3.7c0-3,2.1-5.3,4.8-5.3c2.3,0,3.8,1.4,3.8,3.7c0,0.3-0.1,0.7-0.1,1H336.1z M336.2,142.9h6.8c0-0.2,0-0.3,0-0.4
			c0-1.8-1.2-2.9-3-2.9C338.1,139.6,336.6,140.9,336.2,142.9z"/>
		<path d="M345.8,143c0-3.9,2.7-7.2,7.2-7.2c1.9,0,3.3,0.6,4.1,1.6l-0.6,0.6c-0.8-0.9-2-1.4-3.6-1.4c-3.8,0-6.3,2.9-6.3,6.3
			c0,2.5,1.6,4.1,4.7,4.1c1.6,0,3-0.5,3.9-1.4l0.5,0.6c-1,1-2.7,1.6-4.5,1.6C347.7,147.9,345.8,145.9,345.8,143z"/>
		<path d="M357.1,144.2c0-3,2.1-5.3,5.1-5.3c2.4,0,3.9,1.4,3.9,3.7c0,3.1-2.1,5.3-5.1,5.3C358.7,147.9,357.1,146.4,357.1,144.2z
			 M365.3,142.6c0-1.9-1.2-3-3.1-3c-2.4,0-4.2,1.9-4.2,4.5c0,1.9,1.2,3,3.1,3C363.5,147.1,365.3,145.2,365.3,142.6z"/>
		<path d="M383.5,141.7c0,0.3,0,0.6-0.1,1l-1,5.1h-0.8l1-5.1c0.1-0.3,0.1-0.6,0.1-0.9c0-1.4-0.8-2.2-2.4-2.2c-1.9,0-3.3,1.1-3.7,3.1
			l-1,5h-0.8l1-5.1c0.1-0.3,0.1-0.6,0.1-0.9c0-1.4-0.8-2.2-2.4-2.2c-2,0-3.3,1.2-3.8,3.3l-1,4.8h-0.8l1.8-8.9h0.8l-0.3,1.7
			c0.8-1.2,2.1-1.7,3.6-1.7c1.6,0,2.7,0.7,3,2c0.9-1.3,2.2-2,3.9-2C382.5,138.9,383.5,139.9,383.5,141.7z"/>
	</g>
</g>
</svg>
