<?xml version="1.0" encoding="UTF-8"?><svg id="Layer_1" xmlns="http://www.w3.org/2000/svg" viewBox="0 0 29.27 29.26"><defs><style>.cls-1{fill:#fff;}</style></defs><path id="Icon_awesome-twitter-square" class="cls-1" d="M26.13,0H3.14C1.4,0,0,1.4,0,3.14h0V26.13c0,1.73,1.4,3.14,3.14,3.14H26.13c1.73,0,3.14-1.4,3.14-3.14V3.14C29.27,1.4,27.86,0,26.13,0Zm-3.19,10.37c.01,.18,.01,.37,.01,.56,.05,6.69-5.34,12.14-12.02,12.19-.06,0-.11,0-.17,0-2.33,0-4.62-.66-6.58-1.92,.34,.04,.69,.05,1.03,.05,1.93,0,3.8-.64,5.32-1.83-1.83-.04-3.44-1.23-4-2.97,.64,.11,1.3,.08,1.93-.08-2-.41-3.44-2.17-3.43-4.21v-.05c.59,.33,1.26,.52,1.93,.54-1.19-.79-1.91-2.13-1.91-3.57,0-.76,.2-1.51,.58-2.16,2.18,2.68,5.39,4.31,8.83,4.48-.54-2.31,.9-4.62,3.21-5.15,1.49-.35,3.05,.13,4.1,1.24,.96-.18,1.88-.53,2.72-1.03-.32,.99-.99,1.83-1.88,2.36,.85-.1,1.68-.32,2.47-.67-.58,.86-1.31,1.61-2.15,2.22Z"/></svg>