<?xml version="1.0" encoding="UTF-8"?><svg id="Layer_1" xmlns="http://www.w3.org/2000/svg" viewBox="0 0 29.26 29.26"><defs><style>.cls-1{fill:#fff;}</style></defs><path id="Icon_awesome-youtube-square" class="cls-1" d="M12.2,11.11l6.22,3.54-6.22,3.53v-7.07ZM29.26,3.14V26.13c0,1.73-1.4,3.14-3.14,3.14H3.14C1.4,29.26,0,27.86,0,26.13V3.14C0,1.4,1.4,0,3.14,0H26.13c1.73,0,3.14,1.4,3.14,3.14Zm-2.74,11.51c.01-1.93-.16-3.86-.5-5.76-.27-1.03-1.07-1.84-2.1-2.12-1.85-.5-9.29-.5-9.29-.5,0,0-7.44,0-9.29,.5-1.03,.28-1.83,1.09-2.1,2.12-.34,1.9-.51,3.83-.5,5.76-.01,1.93,.16,3.86,.5,5.76,.27,1.02,1.08,1.82,2.1,2.08,1.85,.5,9.29,.5,9.29,.5,0,0,7.44,0,9.29-.5,1.02-.27,1.83-1.06,2.1-2.08,.34-1.9,.51-3.83,.5-5.76Z"/></svg>